<?xml version="1.0" encoding="UTF-8"?>
<svg width="512" height="512" viewBox="0 0 512 512" fill="none" xmlns="http://www.w3.org/2000/svg">
  <defs>
    <linearGradient id="brandGradient" x1="0%" y1="0%" x2="100%" y2="100%">
      <stop offset="0%" stop-color="#E94560"/>
      <stop offset="100%" stop-color="#FD79A8"/>
    </linearGradient>
    <linearGradient id="treeGradient" x1="0%" y1="100%" x2="0%" y2="0%">
      <stop offset="0%" stop-color="#C73650"/>
      <stop offset="100%" stop-color="#E94560"/>
    </linearGradient>
  </defs>
  
  <!-- 树形背景 -->
  <path d="M256 60 L320 160 L400 140 L360 220 L440 260 L360 300 L400 380 L320 340 L256 440 L192 340 L112 380 L152 300 L72 260 L152 220 L112 140 L192 160 Z" fill="url(#treeGradient)" opacity="0.15"/>
  
  <!-- 主树干 -->
  <path d="M220 440 L220 280 Q220 240 256 240 Q292 240 292 280 L292 440 Z" fill="url(#brandGradient)"/>
  
  <!-- 树冠 - 左 -->
  <ellipse cx="200" cy="200" rx="70" ry="60" fill="url(#brandGradient)"/>
  
  <!-- 树冠 - 右 -->
  <ellipse cx="312" cy="200" rx="70" ry="60" fill="url(#brandGradient)"/>
  
  <!-- 树冠 - 顶 -->
  <ellipse cx="256" cy="150" rx="60" ry="50" fill="url(#brandGradient)"/>
  
  <!-- 爪印 - 左上 -->
  <circle cx="180" cy="160" r="18" fill="white"/>
  <circle cx="160" cy="140" r="12" fill="white"/>
  <circle cx="200" cy="140" r="12" fill="white"/>
  <circle cx="150" cy="165" r="10" fill="white"/>
  <circle cx="210" cy="165" r="10" fill="white"/>
  
  <!-- 爪印 - 右上 -->
  <circle cx="332" cy="160" r="18" fill="white"/>
  <circle cx="312" cy="140" r="12" fill="white"/>
  <circle cx="352" cy="140" r="12" fill="white"/>
  <circle cx="302" cy="165" r="10" fill="white"/>
  <circle cx="362" cy="165" r="10" fill="white"/>
  
  <!-- 爪印 - 中心 -->
  <circle cx="256" cy="120" r="20" fill="white"/>
  <circle cx="232" cy="95" r="14" fill="white"/>
  <circle cx="280" cy="95" r="14" fill="white"/>
  <circle cx="220" cy="118" r="11" fill="white"/>
  <circle cx="292" cy="118" r="11" fill="white"/>
  
  <!-- 小爱心 -->
  <path d="M380 120 C380 110, 370 105, 365 110 C360 105, 350 110, 350 120 C350 135, 365 145, 365 145 C365 145, 380 135, 380 120 Z" fill="#FFD700"/>
  <path d="M132 200 C132 192, 124 188, 120 192 C116 188, 108 192, 108 200 C108 212, 120 220, 120 220 C120 220, 132 212, 132 200 Z" fill="#FFD700"/>
</svg>